<svg id="visual" viewBox="0 0 960 150" width="960" height="150" xmlns="http://www.w3.org/2000/svg" xmlns:xlink="http://www.w3.org/1999/xlink" version="1.1"><rect x="0" y="0" width="960" height="150" fill="#001220"></rect><path d="M0 109L107 109L107 118L213 118L213 105L320 105L320 128L427 128L427 113L533 113L533 109L640 109L640 102L747 102L747 112L853 112L853 109L960 109L960 101L960 0L960 0L853 0L853 0L747 0L747 0L640 0L640 0L533 0L533 0L427 0L427 0L320 0L320 0L213 0L213 0L107 0L107 0L0 0Z" fill="#9900ff"></path><path d="M0 89L107 89L107 81L213 81L213 82L320 82L320 75L427 75L427 85L533 85L533 90L640 90L640 94L747 94L747 97L853 97L853 94L960 94L960 82L960 0L960 0L853 0L853 0L747 0L747 0L640 0L640 0L533 0L533 0L427 0L427 0L320 0L320 0L213 0L213 0L107 0L107 0L0 0Z" fill="#8200d9"></path><path d="M0 59L107 59L107 62L213 62L213 69L320 69L320 67L427 67L427 55L533 55L533 59L640 59L640 58L747 58L747 67L853 67L853 54L960 54L960 62L960 0L960 0L853 0L853 0L747 0L747 0L640 0L640 0L533 0L533 0L427 0L427 0L320 0L320 0L213 0L213 0L107 0L107 0L0 0Z" fill="#6c00b4"></path><path d="M0 30L107 30L107 39L213 39L213 24L320 24L320 33L427 33L427 30L533 30L533 17L640 17L640 22L747 22L747 34L853 34L853 34L960 34L960 39L960 0L960 0L853 0L853 0L747 0L747 0L640 0L640 0L533 0L533 0L427 0L427 0L320 0L320 0L213 0L213 0L107 0L107 0L0 0Z" fill="#560090"></path></svg>