<svg id="visual" viewBox="0 0 960 150" width="960" height="150" xmlns="http://www.w3.org/2000/svg" xmlns:xlink="http://www.w3.org/1999/xlink" version="1.1"><rect x="0" y="0" width="960" height="150" fill="#001220"></rect><path d="M0 100L17.8 100.2C35.7 100.3 71.3 100.7 106.8 103.5C142.3 106.3 177.7 111.7 213.2 111.5C248.7 111.3 284.3 105.7 320 101.8C355.7 98 391.3 96 426.8 96.8C462.3 97.7 497.7 101.3 533.2 103.2C568.7 105 604.3 105 640 103C675.7 101 711.3 97 746.8 96.3C782.3 95.7 817.7 98.3 853.2 98.2C888.7 98 924.3 95 942.2 93.5L960 92L960 0L942.2 0C924.3 0 888.7 0 853.2 0C817.7 0 782.3 0 746.8 0C711.3 0 675.7 0 640 0C604.3 0 568.7 0 533.2 0C497.7 0 462.3 0 426.8 0C391.3 0 355.7 0 320 0C284.3 0 248.7 0 213.2 0C177.7 0 142.3 0 106.8 0C71.3 0 35.7 0 17.8 0L0 0Z" fill="#001220"></path><path d="M0 74L17.8 76C35.7 78 71.3 82 106.8 84.2C142.3 86.3 177.7 86.7 213.2 83.2C248.7 79.7 284.3 72.3 320 71.3C355.7 70.3 391.3 75.7 426.8 78.7C462.3 81.7 497.7 82.3 533.2 84.2C568.7 86 604.3 89 640 87.7C675.7 86.3 711.3 80.7 746.8 79.8C782.3 79 817.7 83 853.2 85.3C888.7 87.7 924.3 88.3 942.2 88.7L960 89L960 0L942.2 0C924.3 0 888.7 0 853.2 0C817.7 0 782.3 0 746.8 0C711.3 0 675.7 0 640 0C604.3 0 568.7 0 533.2 0C497.7 0 462.3 0 426.8 0C391.3 0 355.7 0 320 0C284.3 0 248.7 0 213.2 0C177.7 0 142.3 0 106.8 0C71.3 0 35.7 0 17.8 0L0 0Z" fill="#3a4551"></path><path d="M0 61L17.8 61.2C35.7 61.3 71.3 61.7 106.8 62C142.3 62.3 177.7 62.7 213.2 62C248.7 61.3 284.3 59.7 320 61.7C355.7 63.7 391.3 69.3 426.8 70C462.3 70.7 497.7 66.3 533.2 65.2C568.7 64 604.3 66 640 68.3C675.7 70.7 711.3 73.3 746.8 70.8C782.3 68.3 817.7 60.7 853.2 57.3C888.7 54 924.3 55 942.2 55.5L960 56L960 0L942.2 0C924.3 0 888.7 0 853.2 0C817.7 0 782.3 0 746.8 0C711.3 0 675.7 0 640 0C604.3 0 568.7 0 533.2 0C497.7 0 462.3 0 426.8 0C391.3 0 355.7 0 320 0C284.3 0 248.7 0 213.2 0C177.7 0 142.3 0 106.8 0C71.3 0 35.7 0 17.8 0L0 0Z" fill="#777e87"></path><path d="M0 52L17.8 50.2C35.7 48.3 71.3 44.7 106.8 42.2C142.3 39.7 177.7 38.3 213.2 37C248.7 35.7 284.3 34.3 320 36C355.7 37.7 391.3 42.3 426.8 45.7C462.3 49 497.7 51 533.2 52.3C568.7 53.7 604.3 54.3 640 51.8C675.7 49.3 711.3 43.7 746.8 40.2C782.3 36.7 817.7 35.3 853.2 35.3C888.7 35.3 924.3 36.7 942.2 37.3L960 38L960 0L942.2 0C924.3 0 888.7 0 853.2 0C817.7 0 782.3 0 746.8 0C711.3 0 675.7 0 640 0C604.3 0 568.7 0 533.2 0C497.7 0 462.3 0 426.8 0C391.3 0 355.7 0 320 0C284.3 0 248.7 0 213.2 0C177.7 0 142.3 0 106.8 0C71.3 0 35.7 0 17.8 0L0 0Z" fill="#b9bcc1"></path><path d="M0 28L17.8 27.5C35.7 27 71.3 26 106.8 24.2C142.3 22.3 177.7 19.7 213.2 19.5C248.7 19.3 284.3 21.7 320 24.3C355.7 27 391.3 30 426.8 29C462.3 28 497.7 23 533.2 20.8C568.7 18.7 604.3 19.3 640 20C675.7 20.7 711.3 21.3 746.8 21.2C782.3 21 817.7 20 853.2 21.3C888.7 22.7 924.3 26.3 942.2 28.2L960 30L960 0L942.2 0C924.3 0 888.7 0 853.2 0C817.7 0 782.3 0 746.8 0C711.3 0 675.7 0 640 0C604.3 0 568.7 0 533.2 0C497.7 0 462.3 0 426.8 0C391.3 0 355.7 0 320 0C284.3 0 248.7 0 213.2 0C177.7 0 142.3 0 106.8 0C71.3 0 35.7 0 17.8 0L0 0Z" fill="#ffffff"></path></svg>