<svg id="visual" viewBox="0 0 960 150" width="960" height="150" xmlns="http://www.w3.org/2000/svg" xmlns:xlink="http://www.w3.org/1999/xlink" version="1.1"><rect x="0" y="0" width="960" height="150" fill="#001220"></rect><path d="M0 117L120 104L240 108L360 83L480 105L600 90L720 114L840 106L960 106L960 0L840 0L720 0L600 0L480 0L360 0L240 0L120 0L0 0Z" fill="#f5730a"></path><path d="M0 86L120 67L240 66L360 74L480 78L600 67L720 69L840 66L960 89L960 0L840 0L720 0L600 0L480 0L360 0L240 0L120 0L0 0Z" fill="#d15308"></path><path d="M0 44L120 64L240 60L360 39L480 49L600 43L720 49L840 43L960 66L960 0L840 0L720 0L600 0L480 0L360 0L240 0L120 0L0 0Z" fill="#ac3505"></path><path d="M0 28L120 35L240 18L360 35L480 22L600 33L720 31L840 35L960 30L960 0L840 0L720 0L600 0L480 0L360 0L240 0L120 0L0 0Z" fill="#871400"></path></svg>