<svg id="visual" viewBox="0 0 960 150" width="960" height="150" xmlns="http://www.w3.org/2000/svg" xmlns:xlink="http://www.w3.org/1999/xlink" version="1.1"><rect x="0" y="0" width="960" height="150" fill="#001220"></rect><path d="M0 39L107 39L107 30L213 30L213 43L320 43L320 20L427 20L427 35L533 35L533 39L640 39L640 46L747 46L747 36L853 36L853 39L960 39L960 47L960 151L960 151L853 151L853 151L747 151L747 151L640 151L640 151L533 151L533 151L427 151L427 151L320 151L320 151L213 151L213 151L107 151L107 151L0 151Z" fill="#9900ff"></path><path d="M0 59L107 59L107 67L213 67L213 66L320 66L320 73L427 73L427 63L533 63L533 58L640 58L640 54L747 54L747 51L853 51L853 54L960 54L960 66L960 151L960 151L853 151L853 151L747 151L747 151L640 151L640 151L533 151L533 151L427 151L427 151L320 151L320 151L213 151L213 151L107 151L107 151L0 151Z" fill="#8200d9"></path><path d="M0 89L107 89L107 86L213 86L213 79L320 79L320 81L427 81L427 93L533 93L533 89L640 89L640 90L747 90L747 81L853 81L853 94L960 94L960 86L960 151L960 151L853 151L853 151L747 151L747 151L640 151L640 151L533 151L533 151L427 151L427 151L320 151L320 151L213 151L213 151L107 151L107 151L0 151Z" fill="#6c00b4"></path><path d="M0 118L107 118L107 109L213 109L213 124L320 124L320 115L427 115L427 118L533 118L533 131L640 131L640 126L747 126L747 114L853 114L853 114L960 114L960 109L960 151L960 151L853 151L853 151L747 151L747 151L640 151L640 151L533 151L533 151L427 151L427 151L320 151L320 151L213 151L213 151L107 151L107 151L0 151Z" fill="#560090"></path></svg>